# xmcd
#
# Track frame offsets: 
#        150
#        25787
#        49835
#        83118
#        111411
#        156085
#        203806
#        241873
#        276715
#
# Disc length: 4138 seconds
#
# Revision: 0
# Processed by: cddbd v1.5.2PL0 Copyright (c) Steve Scherf et al.
# Submitted via: ExactAudioCopy v0.99pb3
#
DISCID=79102809
DTITLE=Daryl Coley - Quintessential Daryl Coley
DYEAR=1996
DGENRE=
TTITLE0=Worthy Praise
TTITLE1=He'll Make A Way
TTITLE2=Real
TTITLE3=We Are One
TTITLE4=What's In Your Name
TTITLE5=Jesus Never Fails
TTITLE6=Beyond The Veil
TTITLE7=Sweet Communion
TTITLE8=It Shall Be Done
EXTD=
EXTT0=
EXTT1=
EXTT2=
EXTT3=
EXTT4=
EXTT5=
EXTT6=
EXTT7=
EXTT8=
PLAYORDER=
